<svg version="1.1" id="Layer_1" xmlns="http://www.w3.org/2000/svg" xmlns:xlink="http://www.w3.org/1999/xlink" x="0px" y="0px" viewBox="0 0 50 50" style="enable-background:new 0 0 50 50;" xml:space="preserve">
 <style type="text/css">
  .st0{fill-rule:evenodd;clip-rule:evenodd;fill:#0053D6;}
 </style>
 <g>
  <path class="st0" d="M8.9,17.4C8.2,8.8,14.6,0,25.3,0c3.5,0,7.2,0.9,10.4,2.4C44.1,6.4,50,15,50,25c0,9.2-5,17.3-12.5,21.6
		c3.6-3.5,5.7-8.6,5.3-14.2c-0.7-9.2-9.4-16.7-17.2-16.7c-7.3,0-10.2,6.4-9.5,10.7c0.3,1.6,1,3.1,2,4.3c-1.3-0.7-2.6-1.6-3.8-2.7
		C11.1,25.1,9.2,21.3,8.9,17.4z M41,32.6C41.7,41.2,35.3,50,24.7,50c-3.5,0-7.2-0.9-10.4-2.4C5.9,43.6,0,35,0,25
		C0,15.8,5,7.7,12.5,3.4C8.9,6.9,6.7,12,7.2,17.6c0.7,9.2,9.4,16.7,17.2,16.7c7.3,0,10.2-6.4,9.5-10.7c-0.3-1.6-1-3.1-2-4.3
		c1.3,0.7,2.6,1.6,3.8,2.7C38.8,24.9,40.7,28.7,41,32.6z">
  </path>
 </g>
</svg>